<?xml version="1.0" encoding="UTF-8" standalone="no"?>
<!-- Generator: Adobe Illustrator 15.0.2, SVG Export Plug-In . SVG Version: 6.00 Build 0)  -->

<svg
   xmlns:dc="http://purl.org/dc/elements/1.1/"
   xmlns:cc="http://creativecommons.org/ns#"
   xmlns:rdf="http://www.w3.org/1999/02/22-rdf-syntax-ns#"
   xmlns:svg="http://www.w3.org/2000/svg"
   xmlns="http://www.w3.org/2000/svg"
   xmlns:sodipodi="http://sodipodi.sourceforge.net/DTD/sodipodi-0.dtd"
   xmlns:inkscape="http://www.inkscape.org/namespaces/inkscape"
   version="1.1"
   id="Layer_1"
   x="0px"
   y="0px"
   width="512px"
   height="499.354px"
   viewBox="0 0 512 499.354"
   enable-background="new 0 0 512 499.354"
   xml:space="preserve"
   inkscape:version="0.48.4 r9939"
   sodipodi:docname="icon.svg"><metadata
     id="metadata11"><rdf:RDF><cc:Work
         rdf:about=""><dc:format>image/svg+xml</dc:format><dc:type
           rdf:resource="http://purl.org/dc/dcmitype/StillImage" /></cc:Work></rdf:RDF></metadata><defs
     id="defs9" /><sodipodi:namedview
     pagecolor="#ffffff"
     bordercolor="#666666"
     borderopacity="1"
     objecttolerance="10"
     gridtolerance="10"
     guidetolerance="10"
     inkscape:pageopacity="0"
     inkscape:pageshadow="2"
     inkscape:window-width="895"
     inkscape:window-height="658"
     id="namedview7"
     showgrid="true"
     inkscape:zoom="0.47261061"
     inkscape:cx="256"
     inkscape:cy="249.677"
     inkscape:window-x="55"
     inkscape:window-y="34"
     inkscape:window-maximized="0"
     inkscape:current-layer="Layer_1"><inkscape:grid
       type="xygrid"
       id="grid2988" /></sodipodi:namedview><g
     id="g3"
     style="stroke:#ffffff;fill:#ffffff"><path
       fill="#000000"
       d="M255.987,0C114.615,0,0,114.622,0,256.013c0,113.103,73.333,209.064,175.07,242.892   c12.814,2.371,17.475-5.514,17.475-12.321c0-6.063-0.225-22.153-0.333-43.538c-71.215,15.48-86.241-34.327-86.241-34.327   c-11.644-29.563-28.429-37.436-28.429-37.436c-23.244-15.872,1.766-15.558,1.766-15.558c25.692,1.813,39.215,26.371,39.215,26.371   c22.83,39.122,59.923,27.802,74.5,21.289c2.317-16.577,8.948-27.833,16.253-34.244C152.439,362.68,92.68,340.718,92.68,242.622   c0-27.955,9.971-50.812,26.34-68.712c-2.619-6.445-11.42-32.475,2.516-67.733c0,0,21.49-6.882,70.407,26.263   c20.407-5.705,42.311-8.555,64.083-8.638c21.744,0.089,43.654,2.933,64.09,8.638c48.878-33.145,70.334-26.263,70.334-26.263   c13.974,35.259,5.179,61.288,2.551,67.733c16.41,17.9,26.308,40.757,26.308,68.712c0,98.327-59.846,119.987-116.872,126.301   c9.18,7.91,17.372,23.564,17.372,47.449c0,34.205-0.314,61.808-0.314,70.205c0,6.858,4.603,14.833,17.597,12.295   C438.718,464.968,512,369.09,512,256.013C512,114.622,397.385,0,255.987,0z"
       id="path5"
       style="stroke:#ffffff;fill:#ffffff" /></g></svg>